<mxfile host="app.diagrams.net" modified="2022-06-04T11:44:14.428Z" agent="5.0 (Macintosh; Intel Mac OS X 10_15_7) AppleWebKit/605.1.15 (KHTML, like Gecko) Version/15.5 Safari/605.1.15" etag="9kMdxZ3RkGhENxKgiFdG" version="19.0.0" type="github">
  <diagram name="Page-1" id="0783ab3e-0a74-02c8-0abd-f7b4e66b4bec">
    <mxGraphModel dx="929" dy="559" grid="1" gridSize="10" guides="1" tooltips="1" connect="1" arrows="1" fold="1" page="1" pageScale="1" pageWidth="850" pageHeight="1100" background="none" math="0" shadow="0">
      <root>
        <mxCell id="0" />
        <mxCell id="1" parent="0" />
        <mxCell id="1c1d494c118603dd-1" value="&lt;div style=&quot;font-weight: 400; text-align: start;&quot; title=&quot;Page 1&quot; class=&quot;page&quot;&gt;&lt;div class=&quot;layoutArea&quot;&gt;&lt;div class=&quot;column&quot;&gt;&lt;p&gt;&lt;span style=&quot;font-size: 11pt;&quot;&gt;&lt;font face=&quot;Helvetica&quot;&gt;核酸检测管理系统&lt;/font&gt;&lt;/span&gt;&lt;/p&gt;&lt;/div&gt;&lt;/div&gt;&lt;/div&gt;" style="swimlane;html=1;childLayout=stackLayout;startSize=20;rounded=0;shadow=0;comic=0;labelBackgroundColor=none;strokeWidth=1;fontFamily=Verdana;fontSize=12;align=center;" parent="1" vertex="1">
          <mxGeometry x="40" y="40" width="750" height="700" as="geometry" />
        </mxCell>
        <mxCell id="1c1d494c118603dd-2" value="居民" style="swimlane;html=1;startSize=20;" parent="1c1d494c118603dd-1" vertex="1">
          <mxGeometry y="20" width="375" height="680" as="geometry" />
        </mxCell>
        <mxCell id="NGzrBBCzL3-EiJXaKSIP-3" style="edgeStyle=orthogonalEdgeStyle;rounded=0;orthogonalLoop=1;jettySize=auto;html=1;exitX=0.5;exitY=1;exitDx=0;exitDy=0;entryX=0.5;entryY=0;entryDx=0;entryDy=0;fontFamily=Helvetica;fontSize=18;" edge="1" parent="1c1d494c118603dd-2" source="NGzrBBCzL3-EiJXaKSIP-1" target="NGzrBBCzL3-EiJXaKSIP-2">
          <mxGeometry relative="1" as="geometry" />
        </mxCell>
        <mxCell id="NGzrBBCzL3-EiJXaKSIP-1" value="&lt;font style=&quot;font-size: 18px;&quot;&gt;登录&lt;/font&gt;" style="rounded=1;whiteSpace=wrap;html=1;fontFamily=Helvetica;" vertex="1" parent="1c1d494c118603dd-2">
          <mxGeometry x="127.5" y="50" width="120" height="60" as="geometry" />
        </mxCell>
        <mxCell id="NGzrBBCzL3-EiJXaKSIP-2" value="&lt;font size=&quot;4&quot;&gt;进出社区申请&lt;/font&gt;" style="rounded=1;whiteSpace=wrap;html=1;fontFamily=Helvetica;" vertex="1" parent="1c1d494c118603dd-2">
          <mxGeometry x="112.5" y="140" width="150" height="60" as="geometry" />
        </mxCell>
        <mxCell id="NGzrBBCzL3-EiJXaKSIP-11" value="&lt;font style=&quot;font-size: 12px;&quot;&gt;重新申请&lt;/font&gt;" style="edgeStyle=orthogonalEdgeStyle;rounded=0;orthogonalLoop=1;jettySize=auto;html=1;exitX=0.5;exitY=0;exitDx=0;exitDy=0;entryX=0.5;entryY=1;entryDx=0;entryDy=0;fontFamily=Helvetica;fontSize=18;" edge="1" parent="1c1d494c118603dd-2" source="NGzrBBCzL3-EiJXaKSIP-9" target="NGzrBBCzL3-EiJXaKSIP-2">
          <mxGeometry relative="1" as="geometry" />
        </mxCell>
        <mxCell id="NGzrBBCzL3-EiJXaKSIP-9" value="&lt;font size=&quot;4&quot;&gt;上传核酸检测报告&lt;/font&gt;" style="rounded=1;whiteSpace=wrap;html=1;fontFamily=Helvetica;" vertex="1" parent="1c1d494c118603dd-2">
          <mxGeometry x="112.5" y="250" width="150" height="60" as="geometry" />
        </mxCell>
        <mxCell id="NGzrBBCzL3-EiJXaKSIP-20" style="edgeStyle=orthogonalEdgeStyle;rounded=0;orthogonalLoop=1;jettySize=auto;html=1;exitX=0.5;exitY=1;exitDx=0;exitDy=0;entryX=0.5;entryY=0;entryDx=0;entryDy=0;fontFamily=Helvetica;fontSize=12;" edge="1" parent="1c1d494c118603dd-2" source="NGzrBBCzL3-EiJXaKSIP-16" target="NGzrBBCzL3-EiJXaKSIP-18">
          <mxGeometry relative="1" as="geometry" />
        </mxCell>
        <mxCell id="NGzrBBCzL3-EiJXaKSIP-16" value="&lt;div class=&quot;page&quot; title=&quot;Page 1&quot; style=&quot;&quot;&gt;&lt;div class=&quot;layoutArea&quot;&gt;&lt;div class=&quot;column&quot;&gt;&lt;p&gt;&lt;font size=&quot;4&quot; face=&quot;Verdana&quot;&gt;查看申请记录&lt;/font&gt;&lt;/p&gt;&lt;/div&gt;&lt;/div&gt;&lt;/div&gt;" style="rounded=1;whiteSpace=wrap;html=1;fontFamily=Helvetica;align=center;spacing=2;" vertex="1" parent="1c1d494c118603dd-2">
          <mxGeometry x="112.5" y="360" width="150" height="60" as="geometry" />
        </mxCell>
        <mxCell id="NGzrBBCzL3-EiJXaKSIP-21" style="edgeStyle=orthogonalEdgeStyle;rounded=0;orthogonalLoop=1;jettySize=auto;html=1;exitX=0.5;exitY=1;exitDx=0;exitDy=0;entryX=0.5;entryY=0;entryDx=0;entryDy=0;fontFamily=Helvetica;fontSize=12;" edge="1" parent="1c1d494c118603dd-2" source="NGzrBBCzL3-EiJXaKSIP-18" target="NGzrBBCzL3-EiJXaKSIP-19">
          <mxGeometry relative="1" as="geometry" />
        </mxCell>
        <mxCell id="NGzrBBCzL3-EiJXaKSIP-18" value="&lt;div class=&quot;page&quot; title=&quot;Page 1&quot; style=&quot;&quot;&gt;&lt;div class=&quot;layoutArea&quot;&gt;&lt;div class=&quot;column&quot;&gt;&lt;p&gt;&lt;font size=&quot;4&quot; face=&quot;Verdana&quot;&gt;出示记录&lt;/font&gt;&lt;/p&gt;&lt;/div&gt;&lt;/div&gt;&lt;/div&gt;" style="rounded=1;whiteSpace=wrap;html=1;fontFamily=Helvetica;align=center;spacing=2;" vertex="1" parent="1c1d494c118603dd-2">
          <mxGeometry x="112.5" y="470" width="150" height="60" as="geometry" />
        </mxCell>
        <mxCell id="NGzrBBCzL3-EiJXaKSIP-19" value="&lt;div class=&quot;page&quot; title=&quot;Page 1&quot; style=&quot;&quot;&gt;&lt;div class=&quot;layoutArea&quot;&gt;&lt;div class=&quot;column&quot;&gt;&lt;p&gt;&lt;font size=&quot;4&quot; face=&quot;Verdana&quot;&gt;顺利进出社区&lt;/font&gt;&lt;/p&gt;&lt;/div&gt;&lt;/div&gt;&lt;/div&gt;" style="rounded=1;whiteSpace=wrap;html=1;fontFamily=Helvetica;align=center;spacing=2;" vertex="1" parent="1c1d494c118603dd-2">
          <mxGeometry x="112.5" y="580" width="150" height="60" as="geometry" />
        </mxCell>
        <mxCell id="1c1d494c118603dd-3" value="社区管理员" style="swimlane;html=1;startSize=20;" parent="1c1d494c118603dd-1" vertex="1">
          <mxGeometry x="375" y="20" width="375" height="680" as="geometry" />
        </mxCell>
        <mxCell id="NGzrBBCzL3-EiJXaKSIP-5" value="&lt;font style=&quot;font-size: 18px;&quot;&gt;登录&lt;/font&gt;" style="rounded=1;whiteSpace=wrap;html=1;fontFamily=Helvetica;" vertex="1" parent="1c1d494c118603dd-3">
          <mxGeometry x="127.5" y="50" width="120" height="60" as="geometry" />
        </mxCell>
        <mxCell id="NGzrBBCzL3-EiJXaKSIP-12" style="edgeStyle=orthogonalEdgeStyle;rounded=0;orthogonalLoop=1;jettySize=auto;html=1;exitX=0.5;exitY=1;exitDx=0;exitDy=0;entryX=0.5;entryY=0;entryDx=0;entryDy=0;fontFamily=Helvetica;fontSize=12;" edge="1" parent="1c1d494c118603dd-3" source="NGzrBBCzL3-EiJXaKSIP-6" target="NGzrBBCzL3-EiJXaKSIP-8">
          <mxGeometry relative="1" as="geometry" />
        </mxCell>
        <mxCell id="NGzrBBCzL3-EiJXaKSIP-6" value="&lt;div class=&quot;page&quot; title=&quot;Page 1&quot; style=&quot;&quot;&gt;&lt;div class=&quot;layoutArea&quot;&gt;&lt;div class=&quot;column&quot;&gt;&lt;p&gt;&lt;span style=&quot;font-family: Verdana; font-size: large;&quot;&gt;查看出入申请&lt;/span&gt;&lt;br style=&quot;font-family: Verdana;&quot;&gt;&lt;font size=&quot;4&quot; face=&quot;Verdana&quot;&gt;并审核&lt;/font&gt;&lt;/p&gt;&lt;/div&gt;&lt;/div&gt;&lt;/div&gt;" style="rounded=1;whiteSpace=wrap;html=1;fontFamily=Helvetica;align=center;spacing=2;" vertex="1" parent="1c1d494c118603dd-3">
          <mxGeometry x="112.5" y="140" width="150" height="60" as="geometry" />
        </mxCell>
        <mxCell id="NGzrBBCzL3-EiJXaKSIP-4" style="edgeStyle=orthogonalEdgeStyle;rounded=0;orthogonalLoop=1;jettySize=auto;html=1;exitX=0.5;exitY=1;exitDx=0;exitDy=0;entryX=0.5;entryY=0;entryDx=0;entryDy=0;fontFamily=Helvetica;fontSize=18;" edge="1" parent="1c1d494c118603dd-3" source="NGzrBBCzL3-EiJXaKSIP-5" target="NGzrBBCzL3-EiJXaKSIP-6">
          <mxGeometry relative="1" as="geometry" />
        </mxCell>
        <mxCell id="NGzrBBCzL3-EiJXaKSIP-15" value="是" style="edgeStyle=orthogonalEdgeStyle;rounded=0;orthogonalLoop=1;jettySize=auto;html=1;exitX=0.5;exitY=1;exitDx=0;exitDy=0;entryX=0.5;entryY=0;entryDx=0;entryDy=0;fontFamily=Helvetica;fontSize=12;" edge="1" parent="1c1d494c118603dd-3" source="NGzrBBCzL3-EiJXaKSIP-8" target="NGzrBBCzL3-EiJXaKSIP-14">
          <mxGeometry relative="1" as="geometry" />
        </mxCell>
        <mxCell id="NGzrBBCzL3-EiJXaKSIP-8" value="&lt;span style=&quot;font-size: 14px;&quot;&gt;是否进行过&lt;br&gt;核酸检测&lt;/span&gt;" style="rhombus;whiteSpace=wrap;html=1;rounded=0;shadow=0;labelBackgroundColor=none;strokeWidth=1;fontFamily=Verdana;fontSize=8;align=center;" vertex="1" parent="1c1d494c118603dd-3">
          <mxGeometry x="122.5" y="240" width="130" height="80" as="geometry" />
        </mxCell>
        <mxCell id="NGzrBBCzL3-EiJXaKSIP-14" value="&lt;div class=&quot;page&quot; title=&quot;Page 1&quot; style=&quot;&quot;&gt;&lt;div class=&quot;layoutArea&quot;&gt;&lt;div class=&quot;column&quot;&gt;&lt;p&gt;&lt;font size=&quot;4&quot; face=&quot;Verdana&quot;&gt;审批通过&lt;/font&gt;&lt;/p&gt;&lt;/div&gt;&lt;/div&gt;&lt;/div&gt;" style="rounded=1;whiteSpace=wrap;html=1;fontFamily=Helvetica;align=center;spacing=2;" vertex="1" parent="1c1d494c118603dd-3">
          <mxGeometry x="112.5" y="360" width="150" height="60" as="geometry" />
        </mxCell>
        <mxCell id="NGzrBBCzL3-EiJXaKSIP-7" style="edgeStyle=orthogonalEdgeStyle;rounded=0;orthogonalLoop=1;jettySize=auto;html=1;exitX=1;exitY=0.5;exitDx=0;exitDy=0;entryX=0;entryY=0.5;entryDx=0;entryDy=0;fontFamily=Helvetica;fontSize=18;" edge="1" parent="1c1d494c118603dd-1" source="NGzrBBCzL3-EiJXaKSIP-2" target="NGzrBBCzL3-EiJXaKSIP-6">
          <mxGeometry relative="1" as="geometry" />
        </mxCell>
        <mxCell id="NGzrBBCzL3-EiJXaKSIP-10" style="edgeStyle=orthogonalEdgeStyle;rounded=0;orthogonalLoop=1;jettySize=auto;html=1;exitX=0;exitY=0.5;exitDx=0;exitDy=0;entryX=1;entryY=0.5;entryDx=0;entryDy=0;fontFamily=Helvetica;fontSize=18;" edge="1" parent="1c1d494c118603dd-1" source="NGzrBBCzL3-EiJXaKSIP-8" target="NGzrBBCzL3-EiJXaKSIP-9">
          <mxGeometry relative="1" as="geometry" />
        </mxCell>
        <mxCell id="NGzrBBCzL3-EiJXaKSIP-13" value="否" style="edgeLabel;html=1;align=center;verticalAlign=middle;resizable=0;points=[];fontSize=12;fontFamily=Helvetica;" vertex="1" connectable="0" parent="NGzrBBCzL3-EiJXaKSIP-10">
          <mxGeometry x="-0.5872" y="1" relative="1" as="geometry">
            <mxPoint x="1" as="offset" />
          </mxGeometry>
        </mxCell>
        <mxCell id="NGzrBBCzL3-EiJXaKSIP-17" style="edgeStyle=orthogonalEdgeStyle;rounded=0;orthogonalLoop=1;jettySize=auto;html=1;exitX=0;exitY=0.5;exitDx=0;exitDy=0;entryX=1;entryY=0.5;entryDx=0;entryDy=0;fontFamily=Helvetica;fontSize=12;" edge="1" parent="1c1d494c118603dd-1" source="NGzrBBCzL3-EiJXaKSIP-14" target="NGzrBBCzL3-EiJXaKSIP-16">
          <mxGeometry relative="1" as="geometry" />
        </mxCell>
      </root>
    </mxGraphModel>
  </diagram>
</mxfile>
